<?xml version="1.0" encoding="UTF-8" standalone="no"?>
<svg
   xmlns:dc="http://purl.org/dc/elements/1.1/"
   xmlns:cc="http://creativecommons.org/ns#"
   xmlns:rdf="http://www.w3.org/1999/02/22-rdf-syntax-ns#"
   xmlns:svg="http://www.w3.org/2000/svg"
   xmlns="http://www.w3.org/2000/svg"
   viewBox="0 0 1029.3333 405.33334"
   height="405.33334"
   width="1029.3333"
   xml:space="preserve"
   id="svg2"
   version="1.1"><metadata
     id="metadata8"><rdf:RDF><cc:Work
         rdf:about=""><dc:format>image/svg+xml</dc:format><dc:type
           rdf:resource="http://purl.org/dc/dcmitype/StillImage" /></cc:Work></rdf:RDF></metadata><defs
     id="defs6"><clipPath
       id="clipPath18"
       clipPathUnits="userSpaceOnUse"><path
         id="path16"
         d="M 0,304 H 772 V 0 H 0 Z" /></clipPath></defs><g
     transform="matrix(1.3333333,0,0,-1.3333333,0,405.33333)"
     id="g10"><g
       id="g12"><g
         clip-path="url(#clipPath18)"
         id="g14"><g
           transform="translate(84.7799,220.1682)"
           id="g20"><path
             id="path22"
             style="fill:#24245b;fill-opacity:1;fill-rule:evenodd;stroke:none"
             d="m 0,0 79.367,-0.525 c 24.772,-0.688 39.347,-21.646 39.932,-40.848 0.352,-19.775 -13.407,-42.374 -39.009,-44.051 l -34.289,-0.158 0.023,-35.351 c 0.935,-11.335 10.217,-16.83 20.877,-16.812 l -0.005,-2.169 -66.983,-0.028 -0.059,2.304 c 11.179,0.306 21.537,4.98 21.215,21.669 l -0.233,96.206 C 20.159,-10.443 14.989,-2.923 0,-2.158 Z m 46.024,-10.267 h 30.011 c 19.934,-1.828 29.555,-18.119 29.083,-32.989 -0.476,-14.867 -10.862,-30.372 -28.779,-31.99 H 46.024 Z M 33.141,-85.508 h 9.019 l -0.233,-43.603 c 0.133,-8.991 -8.137,-10.701 -8.377,-0.178 z m 0,75.241 H 42.16 V -75.37 h -9.019 z" /></g><path
           id="path24"
           style="fill:#24245b;fill-opacity:1;fill-rule:evenodd;stroke:none"
           d="m 244.167,220.168 h 2.492 V 80.226 h -2.492 z" /><g
           transform="translate(302.9869,182.189)"
           id="g26"><path
             id="path28"
             style="fill:#24245b;fill-opacity:1;fill-rule:nonzero;stroke:none"
             d="m 0,0 c 6.333,0 6.333,4.475 6.333,6.264 0,3.917 -2.206,5.535 -7.465,5.535 H -7.861 V 0 Z m -7.861,-21.419 h -8.485 V 18.736 H 2.205 c 7.862,0 12.61,-4.977 12.61,-12.862 0,-3.637 -2.034,-12.811 -12.949,-12.811 h -9.727 z" /></g><g
           transform="translate(342.0687,166.809)"
           id="g30"><path
             id="path32"
             style="fill:#24245b;fill-opacity:1;fill-rule:nonzero;stroke:none"
             d="M 0,0 C 4.58,0 11.025,2.798 11.025,14.036 11.025,25.277 4.58,28.075 0,28.075 -4.58,28.075 -11.027,25.277 -11.027,14.036 -11.027,2.798 -4.58,0 0,0 m 0,35.178 c 5.372,0 19.512,-2.294 19.512,-21.142 C 19.512,-4.809 5.372,-7.105 0,-7.105 c -5.372,0 -19.51,2.296 -19.51,21.141 0,18.848 14.138,21.142 19.51,21.142" /></g><g
           transform="translate(386.0708,166.809)"
           id="g34"><path
             id="path36"
             style="fill:#24245b;fill-opacity:1;fill-rule:nonzero;stroke:none"
             d="M 0,0 C 4.58,0 11.027,2.798 11.027,14.036 11.027,25.277 4.58,28.075 0,28.075 -4.58,28.075 -11.025,25.277 -11.025,14.036 -11.025,2.798 -4.58,0 0,0 m 0,35.178 c 5.372,0 19.512,-2.294 19.512,-21.142 C 19.512,-4.809 5.372,-7.105 0,-7.105 c -5.372,0 -19.512,2.296 -19.512,21.141 0,18.848 14.14,21.142 19.512,21.142" /></g><g
           transform="translate(437.1443,200.9247)"
           id="g38"><path
             id="path40"
             style="fill:#24245b;fill-opacity:1;fill-rule:nonzero;stroke:none"
             d="m 0,0 h 7.917 v -40.157 h -8.482 l -16.57,28.636 h -0.113 v -28.636 h -7.917 V 0 h 8.937 L -0.112,-27.963 H 0 Z" /></g><g
           transform="translate(464.0669,175.9809)"
           id="g42"><path
             id="path44"
             style="fill:#24245b;fill-opacity:1;fill-rule:nonzero;stroke:none"
             d="M 0,0 H 10.348 L 5.313,15.881 H 5.201 Z m -5.091,-15.214 h -8.934 L 0.45,24.946 h 9.785 l 14.309,-40.16 h -9.221 l -2.601,8.277 H -2.262 Z" /></g><g
           transform="translate(487.2584,200.9247)"
           id="g46"><path
             id="path48"
             style="fill:#24245b;fill-opacity:1;fill-rule:nonzero;stroke:none"
             d="m 0,0 h 9.047 c 5.201,-21.98 5.712,-24.778 6.445,-29.362 h 0.115 c 0.736,4.194 1.357,8.277 5.653,29.362 h 8.993 c 4.749,-22.036 5.145,-24.161 6.052,-29.362 h 0.113 c 0.679,3.804 1.357,7.27 6.613,29.362 h 8.6 L 40.207,-40.157 h -8.142 c -4.188,19.686 -4.922,23.6 -6.279,31.319 h -0.112 c -1.245,-7.719 -1.925,-10.627 -6.279,-31.319 H 11.48 Z" /></g><g
           transform="translate(551.5045,175.9809)"
           id="g50"><path
             id="path52"
             style="fill:#24245b;fill-opacity:1;fill-rule:nonzero;stroke:none"
             d="M 0,0 H 10.35 L 5.316,15.881 H 5.203 Z m -5.088,-15.214 h -8.935 l 14.475,40.16 h 9.786 l 14.306,-40.16 h -9.218 l -2.602,8.277 H -2.262 Z" /></g><g
           transform="translate(589.9661,168.0383)"
           id="g54"><path
             id="path56"
             style="fill:#24245b;fill-opacity:1;fill-rule:nonzero;stroke:none"
             d="M 0,0 H 20.187 V -7.271 H -8.485 V 32.884 H 0 Z" /></g><g
           transform="translate(624.5219,168.0383)"
           id="g58"><path
             id="path60"
             style="fill:#24245b;fill-opacity:1;fill-rule:nonzero;stroke:none"
             d="M 0,0 H 20.189 V -7.271 H -8.485 V 32.884 H 0 Z" /></g><g
           transform="translate(662.9393,177.0066)"
           id="g62"><path
             id="path64"
             style="fill:#24245b;fill-opacity:1;fill-rule:nonzero;stroke:none"
             d="M 0,0 H 9.724 L 4.996,15.228 H 4.888 Z m -4.78,-14.588 h -8.394 L 0.425,23.92 h 9.193 l 13.443,-38.508 h -8.663 l -2.444,7.937 H -2.122 Z" /></g><g
           transform="translate(295.0693,100.0785)"
           id="g66"><path
             id="path68"
             style="fill:#24245b;fill-opacity:1;fill-rule:nonzero;stroke:none"
             d="M 0,0 H -8.549 V 40.157 H 20.57 V 33.052 H 0 V 23.993 H 18.004 V 16.888 L 0,16.888 Z" /></g><path
           id="path70"
           style="fill:#24245b;fill-opacity:1;fill-rule:nonzero;stroke:none"
           d="m 329.193,100.08 h -8.549 v 40.157 h 8.549 z" /><g
           transform="translate(362.1244,140.2353)"
           id="g72"><path
             id="path74"
             style="fill:#24245b;fill-opacity:1;fill-rule:nonzero;stroke:none"
             d="M 0,0 H 7.979 V -40.157 H -0.57 l -16.693,28.636 h -0.115 v -28.636 h -7.979 V 0 h 9.006 L -0.112,-27.963 H 0 Z" /></g><g
           transform="translate(404.3956,127.0915)"
           id="g76"><path
             id="path78"
             style="fill:#24245b;fill-opacity:1;fill-rule:nonzero;stroke:none"
             d="m 0,0 c -0.682,2.406 -1.993,6.937 -9.06,6.937 -4.101,0 -10.143,-2.686 -10.143,-14.042 0,-7.214 2.906,-13.7 10.143,-13.7 4.728,0 8.035,2.627 9.06,7.548 H 8.548 C 6.836,-21.98 1.027,-28.075 -9.228,-28.075 c -10.887,0 -18.692,7.214 -18.692,21.085 0,14.036 8.265,21.195 18.807,21.195 C 3.136,14.205 8.091,5.93 8.548,0 Z" /></g><g
           transform="translate(437.2641,106.1184)"
           id="g80"><path
             id="path82"
             style="fill:#24245b;fill-opacity:1;fill-rule:nonzero;stroke:none"
             d="M 0,0 C 4.615,0 11.112,2.798 11.112,14.036 11.112,25.28 4.615,28.078 0,28.078 -4.615,28.078 -11.109,25.28 -11.109,14.036 -11.109,2.798 -4.615,0 0,0 m 0,35.178 c 5.413,0 19.655,-2.294 19.655,-21.142 C 19.655,-4.809 5.413,-7.105 0,-7.105 c -5.413,0 -19.655,2.296 -19.655,21.141 0,18.848 14.242,21.142 19.655,21.142" /></g><g
           transform="translate(482.1584,122.562)"
           id="g84"><path
             id="path86"
             style="fill:#24245b;fill-opacity:1;fill-rule:nonzero;stroke:none"
             d="m 0,0 c 4.444,0 6.606,1.509 6.606,5.482 0,2.122 -0.963,5.254 -5.98,5.254 H -10.028 V 0 Z M -18.406,17.673 H 2.277 c 10.884,0 12.88,-7.885 12.88,-11.353 0,-4.419 -2.279,-8.221 -6.327,-9.564 3.363,-1.455 5.182,-2.686 5.182,-10.178 0,-5.874 0,-7.327 1.825,-7.997 v -1.065 H 6.379 c -0.57,1.903 -0.907,3.973 -0.907,8.111 0,5.482 -0.343,7.605 -6.671,7.605 h -8.829 v -15.716 h -8.378 z" /></g><g
           transform="translate(521.3511,121.4994)"
           id="g88"><path
             id="path90"
             style="fill:#24245b;fill-opacity:1;fill-rule:nonzero;stroke:none"
             d="m 0,0 c 6.381,0 6.381,4.475 6.381,6.264 0,3.917 -2.22,5.535 -7.521,5.535 H -7.92 V 0 Z m -7.92,-21.419 h -8.548 V 18.736 H 2.226 c 7.917,0 12.704,-4.98 12.704,-12.862 0,-3.637 -2.05,-12.811 -13.052,-12.811 H -7.92 Z" /></g></g></g></g></svg>