<?xml version="1.0" encoding="UTF-8"?>
<svg id="Layer_1" data-name="Layer 1" xmlns="http://www.w3.org/2000/svg" viewBox="0 0 878.74 307.57">
  <defs>
    <style>
      .cls-1 {
        fill: #ffcc32;
      }

      .cls-2 {
        fill: #26313d;
      }
    </style>
  </defs>
  <rect class="cls-1" x="-38.49" y="-33.77" width="955.72" height="375.11"/>
  <g>
    <rect class="cls-2" x="56.69" y="163.83" width="42.46" height="26.78"/>
    <rect class="cls-2" x="195.03" y="103.57" width="42.46" height="26.78"/>
    <polygon class="cls-2" points="130.35 130.35 163.83 130.35 163.83 159.42 190.62 159.42 190.62 56.69 163.83 56.69 163.83 103.57 130.35 103.57 130.35 56.69 103.57 56.69 103.57 103.57 56.69 103.57 56.69 130.35 103.57 130.35 130.35 130.35"/>
    <path class="cls-2" d="M163.83,163.83h-33.48v-29.07h-26.78v92.68l23.44,23.44h40.18l23.44-23.44v-36.83h46.87v-26.78h-73.66ZM163.83,224.1h-33.48v-33.48h33.48v33.48Z"/>
    <polygon class="cls-2" points="414.73 156.32 388.32 103.24 378.33 103.24 378.33 206.77 395.12 206.77 395.12 149.26 421.69 206.77 431.54 206.77 431.54 103.24 414.73 103.24 414.73 156.32"/>
    <polygon class="cls-2" points="334.17 103.24 334.17 190.55 314.54 190.55 314.54 103.24 297.75 103.24 297.75 191.97 312.56 206.77 336.15 206.77 350.96 191.97 350.96 103.24 334.17 103.24"/>
    <polygon class="cls-2" points="500.88 119.46 500.88 103.24 486.89 103.24 470.1 103.24 456.11 103.24 456.11 119.46 470.1 119.46 470.1 190.55 456.11 190.55 456.11 206.77 500.88 206.77 500.88 190.55 486.89 190.55 486.89 119.46 500.88 119.46"/>
    <polygon class="cls-2" points="580.09 103.24 559.91 103.24 543.12 103.24 522.94 103.24 522.94 119.46 543.12 119.46 543.12 206.77 559.91 206.77 559.91 119.46 580.09 119.46 580.09 103.24"/>
    <polygon class="cls-2" points="642 103.24 627.34 148.53 612.69 103.24 595.35 103.24 618.95 168.52 618.95 206.77 635.74 206.77 635.74 168.52 659.34 103.24 642 103.24"/>
    <path class="cls-2" d="M690.29,121.26h1.75c2.45,5.01,4.9,7.07,8.63,7.07,2.99,0,5.05-1.63,5.05-4.66,0-3.42-2.88-4.31-6.92-5.4-4.08-1.09-8.16-2.41-8.16-7.38,0-4,3.03-7.23,7.77-7.23,2.53,0,5.02,1.09,6.49,2.8l.78-2.68h1.9v8.36h-1.75c-1.98-4.94-4.66-6.65-7.62-6.65-2.57,0-4.55,1.59-4.55,4.43,0,3.58,3.07,4.35,6.69,5.32,4.39,1.13,8.39,2.25,8.39,7.23,0,4.43-3.42,7.73-8.16,7.73-3.15,0-5.68-1.17-7.54-3.15l-.86,3.03h-1.91v-8.82Z"/>
    <path class="cls-2" d="M734.95,111.81c2.91,0,4.55,1.94,4.55,5.56v10.18h2.91v2.02h-8.39v-2.02h2.49v-8.86c0-1.67-.23-2.91-.97-3.69-.51-.51-1.2-.7-2.1-.7-2.45,0-4.86,2.84-4.86,5.64v7.62h2.49v2.02h-7.97v-2.02h2.45v-8.86c0-1.67-.2-2.91-.93-3.69-.54-.51-1.2-.7-2.1-.7-2.49,0-4.86,2.84-4.86,5.64v7.62h2.45v2.02h-8.39v-2.02h2.91v-13.45h-2.91v-2.02h5.87v4.51c2.06-3.57,4.28-4.78,6.41-4.78,2.68,0,4.28,1.48,4.51,4.63,2.1-3.46,4.28-4.63,6.45-4.63"/>
    <path class="cls-2" d="M744.78,125.3c0-1.13.39-2.25,1.2-3.11,1.36-1.36,3.23-1.87,6.65-2.41,2.37-.39,2.76-.47,2.76-1.13v-1.71c0-2.56-1.28-3.5-3.61-3.5-1.36,0-2.53.35-3.34,1.01.66.35,1.05.97,1.05,1.79,0,1.13-.78,1.98-2.02,1.98s-2.06-.89-2.06-2.1c0-2.53,3.26-4.31,6.88-4.31,4,0,6.14,1.71,6.14,5.25v9.13c0,1.21.39,1.55,1.17,1.55.66,0,1.13-.54,1.55-1.55l1.17.66c-.89,1.98-1.87,2.91-3.61,2.91-1.59,0-2.91-.93-2.95-3.23h-.12c-1.17,1.98-3.46,3.3-5.83,3.3-3.19,0-5.01-1.83-5.01-4.55M755.39,124.05v-3.46c-.35.12-.97.23-1.9.39-3.96.62-5.4,1.44-5.4,3.77,0,1.94,1.01,3.03,3.03,3.03s4.28-1.71,4.28-3.73"/>
    <polygon class="cls-2" points="762.46 127.55 765.77 127.55 765.77 104.97 762.46 104.97 762.46 102.87 768.8 102.87 768.8 127.55 772.06 127.55 772.06 129.57 762.46 129.57 762.46 127.55"/>
    <polygon class="cls-2" points="773.5 127.55 776.81 127.55 776.81 104.97 773.5 104.97 773.5 102.87 779.84 102.87 779.84 127.55 783.1 127.55 783.1 129.57 773.5 129.57 773.5 127.55"/>
    <path class="cls-2" d="M689.4,166.42h4.32v-21.34h-4.32v-1.98h21.73v8.08h-1.52c-1.17-5.25-1.79-6.1-4.24-6.1h-8.39v9.91h3.58c2.25,0,2.64-.43,3.15-3.96h1.59v9.91h-1.59c-.43-3.69-.89-4.2-3.15-4.2h-3.58v9.68h4.74v2.02h-12.32v-2.02Z"/>
    <path class="cls-2" d="M713.46,166.42h3.3v-13.45h-3.3v-2.02h6.3v15.47h3.3v2.02h-9.6v-2.02ZM715.83,144.81c0-1.28.89-2.25,2.21-2.25,1.21,0,2.14.89,2.14,2.22s-.93,2.21-2.14,2.21c-1.28,0-2.21-.82-2.21-2.18"/>
    <path class="cls-2" d="M725.04,166.42h2.91v-13.45h-2.91v-2.02h5.87v4.51c2.06-3.57,4.35-4.78,6.61-4.78,2.95,0,4.74,1.94,4.74,5.52v10.22h2.91v2.02h-8.59v-2.02h2.68v-8.86c0-1.63-.27-2.88-1.01-3.61-.54-.58-1.32-.82-2.22-.82-2.56,0-5.05,2.84-5.05,5.67v7.62h2.64v2.02h-8.59v-2.02Z"/>
    <path class="cls-2" d="M747.58,164.16c0-1.13.39-2.25,1.2-3.11,1.36-1.36,3.23-1.87,6.65-2.41,2.37-.39,2.76-.47,2.76-1.13v-1.71c0-2.56-1.28-3.5-3.61-3.5-1.36,0-2.53.35-3.34,1.01.66.35,1.05.97,1.05,1.79,0,1.13-.78,1.98-2.02,1.98s-2.06-.89-2.06-2.1c0-2.53,3.26-4.31,6.88-4.31,4,0,6.14,1.71,6.14,5.25v9.13c0,1.21.39,1.55,1.17,1.55.66,0,1.13-.54,1.55-1.55l1.17.66c-.89,1.98-1.87,2.92-3.61,2.92-1.59,0-2.91-.93-2.95-3.23h-.12c-1.16,1.98-3.46,3.3-5.83,3.3-3.19,0-5.01-1.83-5.01-4.55M758.19,162.92v-3.46c-.35.12-.97.23-1.9.39-3.96.62-5.4,1.44-5.4,3.77,0,1.94,1.01,3.03,3.03,3.03s4.28-1.71,4.28-3.73"/>
    <path class="cls-2" d="M765.88,166.42h2.91v-13.45h-2.91v-2.02h5.87v4.51c2.06-3.57,4.35-4.78,6.61-4.78,2.95,0,4.74,1.94,4.74,5.52v10.22h2.91v2.02h-8.59v-2.02h2.68v-8.86c0-1.63-.27-2.88-1.01-3.61-.54-.58-1.32-.82-2.22-.82-2.56,0-5.05,2.84-5.05,5.67v7.62h2.64v2.02h-8.59v-2.02Z"/>
    <path class="cls-2" d="M788.15,160.04c0-5.52,3.58-9.41,8.82-9.41,3.81,0,6.61,2.68,6.61,4.94,0,1.52-.86,2.68-2.25,2.68-1.32,0-2.1-.97-2.1-2.1,0-.93.62-1.79,1.48-2.1-.62-.93-1.87-1.79-3.85-1.79-3.19,0-5.44,2.84-5.44,7.38s2.1,7.11,5.6,7.11c2.45,0,4.16-1.4,5.13-4h1.67c-1.01,3.93-3.77,6.02-7.54,6.02-4.86,0-8.12-3.69-8.12-8.74"/>
    <path class="cls-2" d="M809.76,159.85c.08,4.55,2.29,6.88,5.6,6.88,2.14,0,3.93-.82,4.97-3.42h1.63c-1.05,3.61-3.65,5.48-7.27,5.48-5.09,0-8.2-3.69-8.2-8.9s3.65-9.25,8.32-9.25c5.09,0,7.35,4.59,7.23,9.21h-12.28ZM809.8,158.18h9.13c-.27-3.65-1.63-5.87-4.31-5.87s-4.43,1.98-4.82,5.87"/>
    <path class="cls-2" d="M689.4,205.28h4.31v-21.34h-4.31v-1.98h11.23c7.54,0,9.41,2.88,9.41,6.1,0,2.06-1.36,4.94-6.37,5.83v.12c5.09.39,7.58,2.99,7.58,6.1,0,3.65-2.14,7.19-10.57,7.19h-11.27v-2.02ZM700.83,193.04c4.08,0,5.71-1.9,5.71-4.9,0-2.64-1.28-4.2-5.56-4.2h-4v9.09h3.85ZM700.86,205.28c4.94,0,6.84-1.63,6.84-5.4,0-2.95-2.18-4.97-6.99-4.97h-3.73v10.38h3.89Z"/>
    <path class="cls-2" d="M714.35,203.03c0-1.13.39-2.25,1.2-3.11,1.36-1.36,3.22-1.87,6.65-2.41,2.37-.39,2.76-.47,2.76-1.13v-1.71c0-2.56-1.28-3.5-3.61-3.5-1.36,0-2.53.35-3.34,1.01.66.35,1.05.97,1.05,1.79,0,1.13-.78,1.98-2.02,1.98s-2.06-.89-2.06-2.1c0-2.53,3.26-4.31,6.88-4.31,4,0,6.14,1.71,6.14,5.25v9.13c0,1.21.39,1.55,1.17,1.55.66,0,1.13-.54,1.55-1.55l1.17.66c-.89,1.98-1.87,2.91-3.61,2.91-1.59,0-2.91-.93-2.95-3.23h-.12c-1.16,1.98-3.46,3.3-5.83,3.3-3.19,0-5.01-1.83-5.01-4.55M724.96,201.78v-3.46c-.35.12-.97.23-1.91.39-3.96.62-5.4,1.44-5.4,3.77,0,1.94,1.01,3.03,3.03,3.03s4.28-1.71,4.28-3.73"/>
    <path class="cls-2" d="M732.66,205.28h2.91v-13.45h-2.91v-2.02h5.87v4.51c2.06-3.57,4.35-4.78,6.61-4.78,2.95,0,4.74,1.94,4.74,5.52v10.22h2.91v2.02h-8.59v-2.02h2.68v-8.86c0-1.63-.27-2.88-1.01-3.61-.54-.58-1.32-.82-2.22-.82-2.56,0-5.05,2.84-5.05,5.67v7.62h2.64v2.02h-8.59v-2.02Z"/>
    <polygon class="cls-2" points="765.03 196.69 771.09 205.28 773.31 205.28 773.31 207.3 765.34 207.3 765.34 205.32 767.67 205.32 763.05 198.6 760.21 201.47 760.21 205.28 762.62 205.28 762.62 207.3 754.26 207.3 754.26 205.28 757.18 205.28 757.18 182.7 754.26 182.7 754.26 180.6 760.21 180.6 760.21 199.3 767.28 191.8 764.37 191.8 764.37 189.81 772.45 189.81 772.45 191.84 769.81 191.84 765.03 196.69"/>
  </g>
</svg>